# xmcd
#
# Track frame offsets:
#	150
#	15993
#	36462
#	53800
#	70757
#	87065
#	101465
#	121648
#	136740
#	153414
#	167391
#	176093
#	192204
#	206000
#	223040
#	238492
#	256930
#
# Disc length: 3664 seconds
#
# Revision: 2
# Processed by: cddbd v1.5.2PL0 Copyright (c) Steve Scherf et al.
# Submitted via: EasyCDDAExtractor 11.5.0.1
#
DISCID=e00e4e11
DTITLE=Various Artist - NCT 034
DYEAR=2002
DGENRE=Country
TTITLE0=Garth Brooks ft. Trisha Yearwood - Squeeze Me In
TTITLE1=Willie Nelson ft. Lee Ann Womack - Mendocino County Line
TTITLE2=Trace Adkins - Help Me Understand
TTITLE3=Pat Green - Three Days
TTITLE4=Brad Martin - Before I Knew Better
TTITLE5=Jeffrey Steele - I Can Love You Like That
TTITLE6=Tracy Lawrence - What A Memory
TTITLE7=Mark Chesnutt - She Was
TTITLE8=Danni Leigh - Sometimes
TTITLE9=The Tractors - The Big Night
TTITLE10=Dale Watson - In The Jailhouse Now
TTITLE11=Elbert West - (This One's Gonna) Leave A Mark
TTITLE12=Ryan Adams - Answering Bell
TTITLE13=Jimmy Rankin - You And Me
TTITLE14=Jake Mathews - That's How Long
TTITLE15=Thomas Wade - The Loser Wins Again
TTITLE16=Smokie With Maggie Reilly - Wrong Reasons
EXTD=
EXTT0=
EXTT1=
EXTT2=
EXTT3=
EXTT4=
EXTT5=
EXTT6=
EXTT7=
EXTT8=
EXTT9=
EXTT10=
EXTT11=
EXTT12=
EXTT13=
EXTT14=
EXTT15=
EXTT16=
PLAYORDER=
